<?xml version="1.0" standalone="no"?>
<!DOCTYPE svg PUBLIC "-//W3C//DTD SVG 20010904//EN"
 "http://www.w3.org/TR/2001/REC-SVG-20010904/DTD/svg10.dtd">
<svg version="1.0" xmlns="http://www.w3.org/2000/svg"
 width="1024.000000pt" height="1024.000000pt" viewBox="0 0 1024.000000 1024.000000"
 preserveAspectRatio="xMidYMid meet">

<g transform="translate(0.000000,1024.000000) scale(0.100000,-0.100000)"
fill="#000000" stroke="none">
<path d="M0 5120 l0 -5120 2073 0 2072 0 -90 44 c-165 79 -332 213 -393 315
-37 64 -35 146 6 235 17 36 33 66 35 66 3 0 22 -6 43 -14 84 -29 252 -59 341
-60 51 0 93 -2 93 -4 0 -2 -15 -22 -34 -45 -43 -54 -60 -87 -49 -97 4 -5 49
16 98 46 50 30 137 73 195 96 105 41 105 41 240 41 108 0 149 -4 203 -21 132
-40 228 -115 278 -218 62 -126 47 -254 -38 -307 l-38 -24 -11 87 c-15 118 -57
198 -134 251 -59 41 -100 57 -100 40 0 -6 17 -34 39 -62 71 -94 86 -134 86
-229 0 -47 -3 -97 -8 -112 l-7 -28 2670 0 2670 0 0 5120 0 5120 -5120 0 -5120
0 0 -5120z m4010 2722 c77 -34 127 -79 201 -178 77 -105 159 -258 159 -299 l0
-25 -50 19 c-71 27 -118 56 -276 172 -76 56 -160 113 -185 126 -103 54 -185
40 -271 -46 -32 -32 -58 -63 -58 -70 0 -21 30 -24 70 -6 76 34 156 5 295 -109
l30 -25 -185 -1 c-116 0 -209 -5 -250 -14 -36 -8 -67 -12 -69 -10 -9 8 40 158
72 223 57 116 172 211 312 258 53 17 148 10 205 -15z m1043 -39 c57 -40 101
-126 137 -268 16 -66 30 -126 30 -132 0 -10 -25 -13 -92 -13 -51 -1 -112 -5
-135 -9 -24 -5 -43 -5 -43 0 0 11 80 102 116 133 18 14 41 26 51 26 29 0 34
10 18 40 -18 34 -57 60 -90 60 -53 0 -134 -57 -263 -182 -45 -45 -84 -79 -87
-77 -5 6 30 177 46 229 34 105 116 213 173 228 42 11 91 -1 139 -35z m2173
-244 c-3 -41 -19 -49 -101 -47 -38 1 -79 -2 -91 -6 -26 -8 -48 15 -39 43 4 14
17 20 46 23 37 3 41 2 46 -24 3 -15 12 -28 20 -28 12 0 12 4 -1 22 -26 36 -20
41 44 35 33 -3 63 -1 66 4 9 16 12 10 10 -22z m-308 -12 c32 -21 -6 -57 -57
-55 -21 0 -42 -1 -47 -4 -5 -3 -19 -2 -31 3 -28 10 -30 47 -4 57 27 10 123 9
139 -1z m-933 -37 c-3 -5 -12 -10 -18 -10 -7 0 -6 4 3 10 19 12 23 12 15 0z
m1715 -126 c0 -29 -4 -34 -23 -34 -16 0 -23 6 -24 23 -2 20 -1 21 11 5 16 -22
23 -23 23 -3 0 8 -5 15 -11 15 -6 0 -4 5 4 11 12 9 11 9 -5 3 -11 -4 -36 -8
-55 -9 -19 -1 -34 -5 -33 -9 7 -29 11 -31 32 -18 17 10 21 10 21 -2 0 -17 -22
-23 -96 -25 -91 -2 -248 -12 -261 -16 -7 -3 -13 0 -13 5 0 10 24 14 72 10 30
-2 68 15 68 31 0 6 -4 8 -9 5 -5 -4 -12 0 -15 6 -3 7 -4 4 -3 -7 1 -15 -5 -21
-23 -23 -14 -2 -22 0 -17 4 4 4 -1 16 -10 26 -17 19 -15 19 37 19 30 0 98 4
150 8 52 3 114 7 138 8 41 1 42 1 42 -33z m-400 7 c-8 -6 -18 -7 -22 -5 -4 3
-8 -2 -8 -10 0 -9 5 -16 10 -16 6 0 10 5 10 10 0 6 9 10 20 10 12 0 20 -7 20
-17 0 -15 -2 -16 -10 -3 -6 10 -10 11 -10 3 0 -7 -3 -12 -7 -11 -5 1 -24 -2
-43 -7 -30 -7 -32 -9 -15 -15 13 -5 2 -8 -32 -8 -46 -1 -51 1 -48 17 2 11 -2
21 -8 24 -22 8 -72 2 -67 -8 3 -5 9 -9 14 -7 4 1 15 -3 24 -10 12 -10 14 -10
8 0 -4 6 -2 12 3 12 19 0 12 -28 -9 -33 -13 -3 -18 -1 -13 6 4 8 2 8 -9 0 -12
-11 -17 -9 -25 10 -18 39 -2 48 98 56 142 12 136 12 119 2z m-332 -26 c-2 -3
-23 -6 -46 -7 -31 -1 -42 -5 -42 -17 0 -10 3 -12 8 -5 4 6 19 11 35 11 66 2
69 3 64 17 -4 9 -1 13 6 10 7 -2 13 -17 12 -32 0 -20 -6 -28 -22 -30 -13 -2
-23 2 -23 8 0 7 -5 6 -14 -3 -8 -8 -38 -15 -74 -16 -49 -2 -61 1 -66 16 -4 10
-2 19 3 21 6 2 9 8 6 12 -6 10 35 19 105 22 47 3 57 2 48 -7z m-184 -21 c-10
-8 -13 -12 -5 -8 10 5 13 3 8 -9 -3 -9 -1 -18 6 -21 7 -3 3 -5 -7 -3 -11 1
-20 11 -22 21 -4 26 3 36 24 36 13 0 13 -2 -4 -16z m-5827 -70 c-3 -3 -12 -4
-19 -1 -8 3 -5 6 6 6 11 1 17 -2 13 -5z m4426 -23 c102 -9 128 -26 146 -96 34
-135 -11 -436 -72 -483 -10 -7 -295 -33 -359 -32 -16 0 -16 3 -2 43 22 61 30
249 14 331 -20 107 -73 167 -148 168 -53 1 -86 -21 -113 -74 -56 -110 -38
-350 34 -452 16 -23 17 -30 6 -37 -17 -10 -31 6 -64 76 -35 73 -49 146 -49
265 -1 164 26 209 164 261 82 31 276 44 443 30z m-4046 -7 c-3 -3 -12 -4 -19
-1 -8 3 -5 6 6 6 11 1 17 -2 13 -5z m2751 -4 c165 -21 240 -70 261 -170 37
-171 -24 -400 -136 -514 -60 -60 -118 -90 -213 -110 -128 -26 -222 -10 -320
56 -74 49 -130 128 -161 227 -40 128 -36 382 7 448 18 29 56 54 97 63 49 12
371 11 465 0z m-2903 -19 c-3 -5 3 -11 12 -14 10 -2 3 -4 -14 -4 -29 0 -31 1
-15 13 20 16 25 17 17 5z m174 -5 c9 -11 9 -16 -1 -22 -7 -4 -10 -4 -6 1 4 4
3 14 -3 22 -6 7 -9 13 -6 13 2 0 10 -6 16 -14z m-58 -13 c11 -15 11 -16 0 -6
-7 6 -21 9 -30 6 -14 -4 -14 -3 -1 6 8 6 16 11 16 11 1 0 8 -8 15 -17z m6013
11 c10 -4 16 -17 15 -38 -1 -18 -3 -23 -6 -13 -5 18 -5 18 -18 0 -11 -15 -29
-18 -100 -20 -47 -1 -100 -5 -117 -8 -21 -5 -33 -3 -39 6 -7 11 -9 11 -9 1 0
-9 -18 -12 -64 -10 -36 1 -62 6 -60 10 8 13 -11 9 -24 -4 -14 -14 -120 -20
-128 -7 -3 5 14 7 37 5 28 -3 38 -1 28 5 -8 5 -22 9 -32 9 -10 0 -15 5 -12 10
3 6 2 10 -4 10 -5 0 -12 -5 -14 -10 -3 -6 -4 -5 -3 2 4 19 38 23 50 6 24 -32
76 -43 76 -16 0 6 -7 7 -16 4 -9 -4 -23 -1 -30 5 -16 13 -18 29 -4 29 6 0 9
-5 8 -11 -2 -6 3 -14 10 -16 7 -3 11 1 10 9 -4 20 93 19 109 -1 6 -9 15 -12
20 -7 4 5 2 11 -4 13 -36 13 -4 22 67 20 44 -1 80 0 80 4 0 3 30 6 67 7 36 1
69 4 71 7 7 7 17 6 36 -1z m-6304 -114 c0 -5 -2 -10 -4 -10 -3 0 -8 5 -11 10
-3 6 -1 10 4 10 6 0 11 -4 11 -10z m105 -47 c-18 -17 -18 -17 -6 0 11 14 11
20 0 35 -12 16 -12 16 6 0 19 -18 19 -18 0 -35z m79 36 c9 8 16 9 16 3 0 -12
-29 -24 -41 -16 -5 3 -9 11 -9 17 0 8 4 7 9 -2 8 -12 12 -12 25 -2z m66 -4 c0
-7 -30 -13 -34 -7 -3 4 4 9 15 9 10 1 19 0 19 -2z m2006 -5 l54 0 0 -102 c1
-190 38 -344 108 -447 51 -74 157 -171 222 -203 122 -61 264 -74 406 -38 149
38 224 88 314 210 83 113 128 244 146 428 l7 72 37 0 37 0 17 -102 c24 -134
50 -237 74 -286 l19 -40 -41 -12 c-88 -26 -206 -102 -206 -133 0 -6 14 -6 33
-2 51 12 172 33 174 31 1 -1 -23 -21 -53 -44 -29 -23 -54 -49 -54 -57 0 -21 4
-20 100 21 138 58 270 101 350 113 41 7 84 15 95 17 14 4 11 -2 -13 -21 -109
-89 -107 -289 5 -399 75 -74 254 -156 340 -156 38 0 40 -9 17 -66 -23 -57 -57
-97 -122 -147 -157 -121 -340 -170 -559 -147 -126 13 -311 47 -433 81 -160 45
-442 180 -610 293 -106 72 -267 223 -252 238 4 4 30 11 57 14 48 7 75 19 75
34 0 4 -32 22 -71 40 -60 27 -79 32 -120 27 -85 -10 -174 -70 -208 -140 -23
-47 -29 -147 -10 -147 6 0 36 19 67 43 112 86 94 88 196 -20 135 -142 237
-214 481 -336 180 -90 285 -130 465 -176 248 -64 371 -84 475 -78 50 2 99 8
110 12 16 7 14 2 -9 -23 -69 -74 -287 -152 -427 -152 -89 0 -269 25 -354 50
-82 23 -75 22 -75 10 0 -18 121 -88 193 -110 39 -13 74 -25 76 -26 9 -8 -88
-120 -159 -184 l-77 -69 -39 40 c-21 23 -82 73 -134 113 -187 141 -382 249
-635 351 -246 100 -315 142 -450 279 -83 83 -108 116 -142 186 -68 137 -87
222 -87 380 0 180 13 236 69 298 90 100 224 166 364 178 36 4 67 7 67 8 1 0
-2 24 -6 51 -9 55 -6 176 5 225 5 22 11 30 22 26 8 -3 39 -6 69 -6z m-2181
-30 c3 -5 1 -10 -4 -10 -6 0 -11 5 -11 10 0 6 2 10 4 10 3 0 8 -4 11 -10z
m156 -13 c-10 -9 -11 -8 -5 6 3 10 9 15 12 12 3 -3 0 -11 -7 -18z m6813 -38
c-8 -17 -18 -29 -21 -26 -2 3 0 14 6 25 6 12 11 23 11 27 0 8 -34 2 -41 -8 -4
-5 -16 -3 -27 4 -12 7 -24 10 -27 7 -8 -7 16 -48 28 -48 4 0 5 5 2 10 -9 15
11 12 24 -4 10 -11 -4 -14 -79 -14 -97 -1 -112 7 -94 49 9 20 10 19 34 -7 l25
-28 -27 17 c-24 15 -26 15 -24 -1 2 -12 14 -18 45 -20 l42 -3 -32 31 -32 30
77 -1 c42 -1 79 1 83 4 3 4 14 2 24 -4 18 -9 18 -12 3 -40z m38 16 c5 -25 -13
-51 -25 -38 -10 9 -8 25 2 19 4 -3 7 8 5 25 -4 35 11 31 18 -6z m-554 2 c6 -5
12 -5 12 0 0 4 31 9 69 11 l69 3 11 -31 c6 -17 15 -29 21 -25 5 3 10 1 10 -4
0 -6 -9 -11 -21 -11 -11 0 -17 5 -14 10 3 6 1 10 -5 10 -6 0 -8 5 -5 10 3 6 1
10 -5 10 -6 0 -8 5 -5 10 9 15 -4 12 -21 -5 -14 -13 -14 -15 0 -15 10 0 13 -6
9 -17 -4 -11 -8 -12 -11 -5 -2 7 -12 12 -23 12 -10 0 -19 5 -19 12 0 6 -3 8
-7 5 -3 -4 -12 -2 -19 4 -19 15 -44 4 -44 -20 0 -16 5 -18 33 -12 18 5 41 5
52 1 24 -8 -37 -20 -108 -20 -40 0 -48 3 -46 18 2 28 0 42 -9 42 -4 0 -8 -12
-8 -27 1 -24 -4 -28 -36 -34 -21 -3 -38 -2 -38 3 0 4 15 8 33 8 25 0 33 4 34
19 1 11 -5 22 -13 25 -12 4 -14 1 -9 -14 4 -11 2 -20 -4 -20 -6 0 -11 5 -11
10 0 6 -5 10 -11 10 -5 0 -8 -4 -5 -9 11 -18 -27 -4 -42 15 -14 18 -14 18 -9
-3 6 -25 -3 -29 -21 -11 -6 6 -33 13 -58 14 -45 3 -46 2 -25 -12 14 -10 32
-13 50 -9 17 4 32 2 36 -5 4 -6 15 -8 26 -5 13 4 19 2 19 -9 0 -20 -40 -17
-58 4 -12 13 -13 13 -8 -2 3 -10 1 -18 -4 -18 -6 0 -10 6 -11 13 0 10 -2 10
-6 0 -2 -7 -10 -13 -15 -13 -6 0 -8 3 -5 7 4 3 -5 12 -20 20 -21 11 -28 11
-34 1 -4 -7 -6 -15 -3 -17 3 -3 9 0 13 7 6 10 10 10 19 -1 10 -11 4 -14 -32
-15 -33 -2 -45 2 -50 14 -8 20 -5 23 24 29 12 2 25 7 29 11 3 4 -10 4 -29 0
-22 -4 -31 -3 -25 3 6 6 78 13 160 17 83 3 151 7 153 9 6 5 58 -1 70 -8z m216
4 c3 -4 -8 -8 -24 -7 -17 1 -30 4 -30 9 0 10 48 9 54 -2z m280 -16 c-4 -8 -11
-12 -16 -9 -6 4 -5 10 3 15 19 12 19 11 13 -6z m-1072 -14 c-8 -4 -13 -11 -13
-15 1 -3 -1 -6 -4 -6 -3 0 -10 0 -16 0 -5 0 -7 4 -4 10 3 6 -1 7 -10 3 -12 -4
-13 -8 -5 -13 9 -6 9 -9 -1 -12 -8 -3 -10 -9 -6 -14 4 -5 13 -2 18 6 8 11 12
12 16 3 2 -7 12 -13 21 -13 15 0 15 2 2 10 -20 13 1 13 34 0 27 -10 34 1 17
28 -7 11 -9 10 -15 -3 -3 -9 -10 -14 -15 -10 -6 3 -8 12 -4 20 3 10 20 15 55
15 l49 0 -3 -32 -3 -33 -78 -5 c-43 -3 -85 -1 -93 3 -17 10 -19 53 -1 60 22 9
73 7 59 -2z m613 -1 c3 -5 1 -10 -4 -10 -6 0 -11 5 -11 10 0 6 2 10 4 10 3 0
8 -4 11 -10z m185 3 c0 -5 -5 -15 -10 -23 -8 -12 -10 -11 -10 8 0 12 5 22 10
22 6 0 10 -3 10 -7z m-6840 -58 c0 -2 -9 -3 -19 -2 -11 0 -18 5 -15 9 4 6 34
0 34 -7z m-97 -15 c3 -11 1 -23 -4 -26 -5 -3 -9 6 -9 20 0 31 6 34 13 6z m317
6 c0 -3 -4 -8 -10 -11 -5 -3 -10 -1 -10 4 0 6 5 11 10 11 6 0 10 -2 10 -4z
m140 -5 c0 -6 -4 -12 -8 -15 -5 -3 -9 1 -9 9 0 8 4 15 9 15 4 0 8 -4 8 -9z
m-275 -11 c3 -5 1 -10 -4 -10 -6 0 -11 5 -11 10 0 6 2 10 4 10 3 0 8 -4 11
-10z m369 -5 c-4 -8 -1 -15 5 -15 6 0 11 8 11 18 0 14 2 15 10 2 10 -16 -13
-36 -30 -25 -13 8 -13 35 0 35 5 0 7 -7 4 -15z m88 -17 c-8 -8 -9 -4 -5 13 4
13 8 18 11 10 2 -7 -1 -18 -6 -23z m58 17 c0 -2 -6 -8 -13 -14 -10 -8 -14 -7
-14 2 0 8 6 14 14 14 7 0 13 -1 13 -2z m40 -7 c0 -4 -4 -8 -9 -8 -6 0 -12 4
-15 8 -3 5 1 9 9 9 8 0 15 -4 15 -9z m80 -3 c0 -2 -6 -5 -13 -8 -8 -3 -14 1
-14 8 0 7 6 11 14 8 7 -3 13 -6 13 -8z m-200 -5 c0 -5 -5 -10 -11 -10 -5 0 -7
5 -4 10 3 6 8 10 11 10 2 0 4 -4 4 -10z m237 4 c-3 -3 -12 -4 -19 -1 -8 3 -5
6 6 6 11 1 17 -2 13 -5z m-392 -24 c19 -8 19 -9 -2 -9 -12 -1 -25 4 -28 9 -7
12 2 12 30 0z m55 -6 c0 -2 -7 -4 -15 -4 -8 0 -15 4 -15 10 0 5 7 7 15 4 8 -4
15 -8 15 -10z m390 7 c0 -5 -7 -12 -16 -15 -14 -5 -15 -4 -4 9 14 17 20 19 20
6z m-293 -17 c-3 -3 -12 -4 -19 -1 -8 3 -5 6 6 6 11 1 17 -2 13 -5z m223 -4
c0 -5 -4 -10 -10 -10 -5 0 -10 5 -10 10 0 6 5 10 10 10 6 0 10 -4 10 -10z
m5523 -26 c11 -4 16 -13 14 -27 -4 -36 -17 -47 -53 -47 -20 0 -34 5 -34 13 0
8 -3 9 -8 1 -9 -14 -52 -25 -52 -13 0 5 6 9 14 9 8 0 17 4 20 9 3 4 -7 8 -23
7 -20 -1 -27 -5 -24 -16 3 -13 -6 -15 -54 -14 -91 2 -93 2 -93 27 0 36 13 45
63 45 54 0 61 -5 41 -33 -9 -12 -14 -14 -14 -5 0 11 -3 11 -12 2 -7 -7 -17
-12 -22 -12 -6 0 2 9 18 19 l28 19 -41 -1 c-35 -1 -40 -4 -35 -19 3 -11 0 -18
-8 -19 -7 -1 3 -5 22 -9 19 -5 36 -5 38 0 2 5 15 7 30 5 15 -2 22 -2 15 1 -10
4 -10 8 0 19 8 9 18 10 32 3 14 -7 13 -4 -4 10 l-25 20 25 4 c38 6 122 7 142
2z m-6038 -93 c3 -5 2 -12 -3 -15 -5 -3 -9 1 -9 9 0 17 3 19 12 6z m-55 -31
c0 -5 -2 -10 -4 -10 -3 0 -8 5 -11 10 -3 6 -1 10 4 10 6 0 11 -4 11 -10z m73
-7 c-7 -2 -19 -2 -25 0 -7 3 -2 5 12 5 14 0 19 -2 13 -5z m6109 -93 c2 6 35
12 76 14 58 2 72 0 68 -11 -3 -7 -1 -13 4 -13 6 0 10 6 10 13 0 8 14 13 36 14
24 0 32 -2 23 -8 -8 -5 -23 -9 -34 -9 -18 -1 -18 -2 -4 -13 9 -7 14 -19 12
-27 -4 -12 -3 -13 5 -1 10 14 32 7 32 -10 0 -19 -48 -9 -53 11 -3 12 -14 20
-25 20 -12 0 -24 5 -27 10 -3 6 -11 10 -17 10 -6 0 -4 -10 5 -24 9 -13 13 -26
10 -30 -11 -10 -163 -7 -163 4 0 6 6 10 13 10 6 0 4 5 -6 11 -10 6 -25 8 -33
5 -16 -6 -17 -4 -8 18 3 9 10 16 16 16 5 0 6 -5 2 -12 -5 -8 -2 -9 10 -5 10 4
20 7 22 7 3 0 2 6 -1 13 -4 6 0 4 8 -6 9 -11 17 -13 19 -7z m284 7 c14 -14 13
-57 -1 -57 -7 0 -20 -3 -29 -6 -9 -3 -16 -1 -16 6 0 6 5 8 11 4 7 -4 10 -1 7
7 -3 8 -11 14 -19 15 -35 2 -40 5 -34 14 3 6 11 10 16 10 6 0 7 -5 3 -11 -4
-7 -1 -10 7 -7 8 3 23 -2 33 -11 18 -15 19 -15 13 1 -3 9 -1 19 6 22 11 4 -17
10 -35 7 -5 0 -8 3 -8 9 0 11 35 8 46 -3z m-686 -6 c0 -5 -6 -11 -12 -14 -7
-2 -9 -8 -5 -13 4 -5 12 -2 17 6 8 12 10 10 10 -7 0 -13 4 -23 10 -23 5 0 7 7
3 16 -3 9 0 20 8 26 11 8 10 9 -3 4 -10 -3 -18 -1 -18 4 0 6 14 10 30 10 22 0
30 -5 29 -17 0 -11 -3 -13 -6 -6 -3 10 -8 9 -19 -2 -9 -8 -12 -20 -8 -26 5 -8
8 -8 14 0 5 9 10 7 20 -4 12 -14 3 -15 -81 -13 l-94 3 -3 28 c-3 23 0 27 20
26 18 -1 19 -2 5 -6 -22 -6 -18 -37 6 -41 12 -3 15 1 11 15 -5 16 -5 17 6 1
15 -24 43 -12 30 12 -14 26 -13 30 10 30 11 0 20 -4 20 -9z m110 -3 c0 -4 -7
-8 -15 -8 -8 0 -15 4 -15 8 0 5 7 9 15 9 8 0 15 -4 15 -9z m57 -18 c0 -33 -33
-53 -48 -29 -6 10 -9 11 -9 2 0 -7 -5 -13 -11 -13 -5 0 -7 5 -3 11 3 6 0 16
-7 21 -10 6 -6 7 11 2 14 -4 27 -11 28 -15 7 -18 20 -8 26 21 7 38 13 38 13 0z
m43 9 c0 -6 -4 -7 -10 -4 -5 3 -10 1 -10 -6 0 -7 -3 -10 -6 -6 -10 10 5 39 16
32 5 -3 10 -11 10 -16z m110 10 c0 -5 -4 -8 -9 -4 -5 3 -12 1 -16 -5 -3 -5 -1
-10 5 -10 6 0 8 -4 5 -10 -4 -6 5 -10 19 -10 14 0 26 -4 26 -10 0 -16 -37 -12
-54 6 -18 18 -18 17 -10 38 7 18 34 22 34 5z m-6347 -36 c-10 -3 -10 -10 -2
-26 10 -21 9 -21 -5 -3 -12 15 -13 23 -4 33 6 7 14 11 17 7 3 -4 0 -9 -6 -11z
m67 1 c0 -2 -9 -4 -20 -4 -11 0 -20 4 -20 9 0 5 9 7 20 4 11 -3 20 -7 20 -9z
m53 -1 c-7 -3 -13 -12 -14 -21 0 -14 -2 -13 -9 3 -5 11 -9 14 -9 8 -1 -7 -6
-13 -12 -13 -22 0 9 26 33 27 13 0 17 -1 11 -4z m6112 -12 c-8 -14 -25 -14
-25 0 0 5 5 7 10 4 6 -3 10 -1 10 6 0 7 3 10 6 6 3 -3 3 -10 -1 -16z m351 10
c-4 -5 0 -12 6 -14 7 -3 4 -6 -8 -6 -12 -1 -21 5 -21 14 0 8 7 15 14 15 8 0
12 -4 9 -9z m-6349 -33 c-3 -7 -5 -2 -5 12 0 14 2 19 5 13 2 -7 2 -19 0 -25z
m88 22 c-3 -5 -12 -10 -18 -10 -7 0 -6 4 3 10 19 12 23 12 15 0z m35 6 c0 -3
-4 -8 -10 -11 -5 -3 -10 -1 -10 4 0 6 5 11 10 11 6 0 10 -2 10 -4z m74 -12 c3
-8 2 -12 -4 -9 -6 3 -10 10 -10 16 0 14 7 11 14 -7z m161 7 c3 -5 1 -12 -5
-16 -5 -3 -10 1 -10 9 0 18 6 21 15 7z m46 -9 c-7 -2 -18 1 -23 6 -8 8 -4 9
13 5 13 -4 18 -8 10 -11z m99 3 c0 -1 -12 -2 -26 -2 -17 0 -22 2 -13 7 10 7
39 3 39 -5z m-645 -25 c3 -5 1 -10 -4 -10 -6 0 -11 5 -11 10 0 6 2 10 4 10 3
0 8 -4 11 -10z m713 -8 c2 -7 -1 -12 -8 -12 -6 0 -9 4 -6 9 4 5 1 12 -4 14 -6
3 -5 4 2 3 6 -1 14 -8 16 -14z m-671 2 c-3 -3 -12 -4 -19 -1 -8 3 -5 6 6 6 11
1 17 -2 13 -5z m463 2 c0 -3 -4 -8 -10 -11 -5 -3 -10 -1 -10 4 0 6 5 11 10 11
6 0 10 -2 10 -4z m4246 -27 c143 -68 69 -172 -121 -172 -91 0 -200 30 -231 64
-27 30 -9 69 46 96 92 46 222 51 306 12z m-4579 15 c-3 -3 -12 -4 -19 -1 -8 3
-5 6 6 6 11 1 17 -2 13 -5z m273 -2 c0 -5 -7 -9 -15 -9 -8 0 -12 4 -9 9 3 4 9
8 15 8 5 0 9 -4 9 -8z m25 -2 c3 -5 1 -10 -4 -10 -6 0 -11 5 -11 10 0 6 2 10
4 10 3 0 8 -4 11 -10z m65 0 c0 -5 -5 -10 -11 -10 -5 0 -7 5 -4 10 3 6 8 10
11 10 2 0 4 -4 4 -10z m5604 -79 c7 -11 -5 -51 -16 -51 -5 0 -6 5 -3 10 3 6 1
10 -4 10 -6 0 -11 -6 -11 -14 0 -19 -138 -15 -151 5 -11 18 -11 26 1 34 6 3
10 -3 10 -14 0 -11 4 -22 9 -25 5 -4 8 2 7 11 -2 10 -1 13 1 6 5 -15 31 -24
38 -14 3 5 14 7 24 4 10 -3 22 1 27 8 5 9 2 10 -10 6 -9 -4 -15 -3 -12 2 3 5
-1 12 -10 15 -21 8 -26 8 -20 -3 3 -5 -1 -12 -10 -15 -8 -3 -12 -2 -9 3 3 6
-3 14 -12 20 -13 7 4 10 64 10 45 0 85 -3 87 -8z m-6137 -24 c0 -8 -6 -14 -14
-14 -9 0 -10 4 -2 14 6 7 12 13 14 13 1 0 2 -6 2 -13z m44 -14 c13 -16 12 -17
-3 -4 -17 13 -22 21 -14 21 2 0 10 -8 17 -17z m83 1 c3 -8 2 -12 -4 -9 -6 3
-10 10 -10 16 0 14 7 11 14 -7z m83 -16 c-3 -8 -6 -5 -6 6 -1 11 2 17 5 13 3
-3 4 -12 1 -19z m-207 -14 c0 -8 -5 -12 -10 -9 -6 4 -8 11 -5 16 9 14 15 11
15 -7z m40 -4 c0 -5 -5 -10 -11 -10 -5 0 -7 5 -4 10 3 6 8 10 11 10 2 0 4 -4
4 -10z m148 -7 c-10 -2 -26 -2 -35 0 -10 3 -2 5 17 5 19 0 27 -2 18 -5z m5790
-97 c15 5 15 4 -1 -6 -9 -6 -21 -9 -26 -5 -5 3 -12 -9 -16 -25 -6 -29 -9 -31
-51 -29 -49 3 -64 14 -61 47 1 25 8 27 25 10 9 -9 12 -9 12 0 0 7 11 12 25 12
14 0 25 -5 25 -11 0 -6 -9 -8 -20 -4 -16 5 -19 3 -14 -12 3 -10 2 -14 -3 -8
-10 13 -33 13 -33 0 0 -5 3 -10 8 -10 4 0 13 -4 20 -8 7 -5 14 -2 18 7 3 9 10
16 16 16 5 0 6 -4 3 -10 -3 -5 -2 -10 4 -10 5 0 13 10 17 23 7 24 27 41 32 27
2 -5 11 -7 20 -4z m92 -6 c0 -5 -7 -7 -15 -4 -8 4 -23 3 -32 0 -15 -6 -15 -8
-3 -16 21 -13 33 -12 24 2 -5 7 -3 8 5 4 7 -5 10 -11 7 -14 -3 -3 -2 -10 3
-16 6 -8 -2 -12 -25 -13 -19 -2 -34 1 -34 6 0 5 10 7 22 3 14 -3 19 -2 14 6
-4 7 -14 12 -22 12 -17 0 -18 12 -2 28 14 14 58 16 58 2z m48 -5 c9 13 35 19
28 6 -3 -5 3 -11 14 -14 22 -6 28 8 8 16 -8 3 -6 6 5 6 9 1 17 -6 17 -14 0 -9
8 -14 21 -12 12 1 24 -4 26 -11 3 -7 -1 -10 -10 -6 -8 3 -18 0 -22 -6 -5 -8 5
-10 34 -7 23 2 41 0 41 -5 0 -15 -199 -6 -205 10 -3 7 0 10 6 7 6 -4 10 -1 8
6 -1 8 -1 21 0 29 1 13 2 13 11 0 6 -9 13 -11 18 -5z m190 -14 c2 -13 -1 -28
-7 -34 -7 -7 -8 -3 -4 12 5 19 3 21 -20 12 -22 -8 -27 -7 -32 9 -3 10 -16 21
-28 23 -12 3 3 4 33 3 50 -1 55 -3 58 -25z m104 20 c-16 -9 -12 -49 3 -41 6 3
9 11 9 18 -1 6 6 12 15 12 14 0 14 2 1 10 -13 8 -13 10 1 10 9 0 22 -7 29 -15
11 -13 10 -14 -3 -9 -10 3 -20 -2 -27 -15 -9 -18 -8 -21 12 -21 19 0 20 2 8
10 -20 13 -8 13 26 0 24 -9 25 -9 14 5 -10 13 -9 15 8 15 15 0 19 -5 15 -20
-5 -19 -12 -21 -67 -18 -49 2 -61 6 -64 21 -5 25 5 47 20 47 10 0 10 -2 0 -9z
m208 -5 c11 -14 9 -56 -3 -56 -5 0 -7 6 -4 13 2 6 1 21 -4 32 -7 19 -8 19 -8
-3 -1 -13 -5 -20 -11 -17 -6 3 -13 -1 -16 -9 -3 -9 -12 -16 -20 -16 -23 0 -16
18 12 33 21 11 23 15 11 20 -9 3 -19 2 -22 -4 -4 -5 -11 -7 -16 -4 -5 4 -19 8
-30 10 -46 9 -30 16 34 14 37 -1 71 -7 77 -13z m245 -5 c-10 -9 -69 -7 -76 2
-3 5 -12 2 -20 -6 -8 -7 -21 -16 -29 -20 -12 -4 -12 -6 2 -6 9 -1 19 3 22 7 3
5 20 9 38 10 23 1 28 -2 18 -8 -8 -5 -24 -7 -35 -4 -18 5 -17 3 4 -14 17 -14
19 -19 7 -19 -9 0 -16 5 -16 11 0 6 -5 4 -10 -4 -7 -10 -10 -11 -10 -2 0 8 -8
10 -24 6 -22 -5 -25 -3 -24 25 1 27 4 30 37 33 49 4 124 -3 116 -11z m-6938
-23 c2 -17 0 -19 -7 -8 -5 8 -6 18 -4 22 8 12 10 10 11 -14z m68 12 c-3 -5 -1
-10 6 -10 7 0 9 -3 6 -6 -4 -4 -13 -2 -20 4 -8 7 -18 8 -22 4 -5 -4 -5 -1 -1
6 4 6 14 12 22 12 8 0 12 -4 9 -10z m65 -2 c0 -5 -4 -7 -9 -4 -5 4 -11 2 -13
-3 -1 -5 -8 -3 -15 4 -9 10 -6 13 13 13 13 0 24 -5 24 -10z m-160 -2 c0 -3 -4
-8 -10 -11 -5 -3 -10 -1 -10 4 0 6 5 11 10 11 6 0 10 -2 10 -4z m185 -6 c3 -5
1 -10 -4 -10 -6 0 -11 5 -11 10 0 6 2 10 4 10 3 0 8 -4 11 -10z m5900 -28 c-4
-4 -10 -1 -13 7 -4 11 -6 11 -13 0 -4 -7 -11 -10 -14 -7 -4 4 -1 13 6 21 12
12 15 12 27 0 8 -8 11 -17 7 -21z m876 8 c6 0 8 4 4 9 -3 5 -1 12 5 16 5 3 10
-1 10 -9 0 -16 -38 -42 -48 -32 -3 3 -1 6 5 6 6 0 10 8 8 18 -1 9 0 11 2 5 3
-7 9 -13 14 -13z m-6966 -10 c3 -5 1 -10 -4 -10 -6 0 -11 5 -11 10 0 6 2 10 4
10 3 0 8 -4 11 -10z m78 3 c3 -5 -6 -9 -20 -10 -19 -1 -22 1 -12 8 17 11 26
11 32 2z m74 -7 c0 -8 -6 -12 -14 -9 -7 3 -10 9 -7 14 8 14 21 11 21 -5z m-24
-111 c-3 -9 -8 -14 -10 -11 -3 3 -2 9 2 15 9 16 15 13 8 -4z m190 -2 c-3 -7
-6 -13 -8 -13 -2 0 -5 6 -8 13 -3 8 1 14 8 14 7 0 11 -6 8 -14z m83 5 c4 -7 4
-10 -1 -6 -4 4 -15 2 -24 -5 -14 -11 -14 -10 -2 6 16 20 18 21 27 5z m31 -10
c2 -18 0 -20 -7 -8 -12 18 -13 30 -2 30 4 0 9 -10 9 -22z m53 13 c0 -6 -5 -13
-12 -17 -6 -4 -8 -3 -4 4 3 5 0 13 -6 15 -8 3 -6 6 5 6 9 1 17 -3 17 -8z m50
4 c0 -7 -30 -13 -34 -7 -3 4 4 9 15 9 10 1 19 0 19 -2z m5620 -8 c0 -5 -9 -7
-19 -4 -15 4 -22 -2 -30 -24 -7 -20 -6 -29 2 -32 7 -3 -1 -4 -18 -2 -22 2 -31
8 -36 26 -3 13 -2 29 3 35 10 13 98 14 98 1z m-5993 -27 c3 -22 -12 -35 -23
-19 -4 8 -3 9 5 5 8 -5 10 0 7 19 -3 15 -2 25 1 21 4 -4 8 -15 10 -26z m38 8
c-9 -6 -19 -7 -22 -4 -4 3 -1 6 6 6 7 0 9 4 6 10 -4 6 1 7 11 3 15 -6 15 -7
-1 -15z m91 -5 c-4 -10 -2 -13 8 -10 10 4 13 1 9 -9 -4 -11 -9 -12 -16 -5 -15
15 -20 54 -6 46 6 -4 8 -14 5 -22z m5938 11 c3 -8 2 -14 -2 -15 -44 -5 -52 -4
-52 3 0 5 -4 6 -10 3 -5 -3 -7 0 -4 8 7 19 61 20 68 1z m56 7 c0 -6 -4 -13
-10 -16 -5 -3 -10 -1 -10 5 0 6 -4 9 -9 5 -5 -3 -12 -1 -16 5 -4 6 5 10 19 10
14 0 26 -4 26 -9z m194 -6 c-3 -6 8 -11 23 -13 27 -1 27 -1 9 13 -23 17 -14
20 15 5 11 -7 19 -21 19 -37 0 -14 -3 -23 -6 -20 -4 3 -15 2 -26 -4 -14 -7
-23 -7 -34 2 -11 9 -14 9 -14 -2 0 -8 -9 -4 -23 9 -27 26 -39 28 -31 7 4 -8 2
-15 -4 -15 -5 0 -9 10 -8 23 1 12 7 21 14 20 7 -2 12 1 12 6 0 5 -11 8 -24 7
-16 -1 -22 -6 -19 -16 3 -9 -2 -7 -12 5 -16 20 -17 20 -13 -5 2 -14 9 -24 16
-22 6 1 12 -2 12 -8 0 -5 -9 -10 -21 -10 -11 0 -17 5 -14 10 3 6 2 10 -4 10
-6 0 -8 6 -5 14 7 19 -15 31 -29 17 -9 -9 -7 -11 8 -6 14 5 16 4 7 -3 -8 -5
-14 -13 -14 -17 0 -4 6 -12 14 -16 10 -7 9 -9 -4 -9 -10 0 -18 8 -19 18 0 9
-2 25 -4 35 -3 16 5 18 90 16 62 -2 92 -6 89 -14z m-6074 -12 c-8 -3 -22 -11
-30 -17 -13 -10 -13 -9 -1 7 7 9 21 17 30 16 13 0 14 -1 1 -6z m5750 -19 c0
-4 -8 -3 -17 1 -14 5 -15 4 -6 -6 8 -8 16 -9 25 -2 17 12 38 11 38 -2 1 -15
-49 -18 -66 -4 -8 6 -14 18 -14 26 0 11 4 11 20 3 11 -6 20 -13 20 -16z
m-5940 7 c0 -14 -29 -21 -36 -9 -4 6 -3 8 4 4 6 -3 13 -2 17 4 8 12 15 13 15
1z m135 -1 c3 -6 -1 -7 -9 -4 -18 7 -21 14 -7 14 6 0 13 -4 16 -10z m65 -4 c0
-2 -7 -7 -16 -10 -8 -3 -12 -2 -9 4 6 10 25 14 25 6z m5880 -11 c0 -10 -10
-14 -35 -13 -20 1 -31 4 -24 8 6 4 20 5 30 3 10 -3 19 0 19 6 0 6 2 11 5 11 3
0 5 -7 5 -15z m-1305 -37 c-4 -18 -22 -65 -41 -104 -46 -99 -141 -186 -267
-247 -51 -25 -106 -47 -123 -50 -29 -6 -27 -2 37 62 72 72 116 149 140 242 12
45 16 49 48 55 59 10 134 34 171 54 19 11 36 19 38 20 2 0 1 -15 -3 -32z
m2375 -34 c0 -3 -4 -13 -10 -23 -5 -10 -11 -29 -14 -42 -8 -46 -57 -244 -63
-259 -3 -8 -7 -19 -7 -25 -5 -36 -19 -102 -24 -110 -7 -11 -8 -17 -10 -52 -1
-13 -6 -23 -10 -23 -13 0 -11 33 2 49 8 11 8 13 -1 7 -7 -4 -13 -3 -13 3 0 5
5 11 12 13 6 2 13 13 14 24 2 10 6 34 9 52 4 19 2 32 -5 32 -5 0 -10 7 -10 15
0 8 -4 15 -9 15 -5 0 -8 -11 -8 -25 0 -15 5 -25 14 -25 8 0 11 -5 8 -10 -4 -6
-10 -8 -15 -5 -4 3 -7 -3 -5 -12 2 -10 4 -18 5 -18 1 0 3 -8 5 -17 2 -12 -3
-18 -16 -18 -17 0 -18 -3 -9 -20 8 -14 8 -20 0 -20 -7 0 -9 -9 -5 -22 7 -22 6
-22 -7 -4 -11 14 -17 16 -23 6 -9 -14 11 -30 38 -30 22 0 22 -26 0 -34 -14 -6
-15 -9 -4 -15 23 -15 4 -48 -27 -47 -22 1 -27 -3 -25 -22 2 -13 -1 -21 -7 -17
-6 3 -10 -1 -10 -9 0 -24 18 -28 25 -5 6 17 9 19 16 8 7 -11 9 -11 9 3 0 9 -6
19 -12 21 -8 3 -6 6 5 6 18 1 21 -17 7 -59 l-8 -25 -1 24 c-1 27 -11 23 -15
-5 -2 -10 -13 -18 -27 -20 -13 -2 -18 0 -11 2 6 3 12 13 12 22 -1 15 -2 15
-14 0 -16 -22 -22 -22 -30 -2 -3 8 -2 13 3 10 12 -8 36 22 26 32 -4 4 -10 1
-12 -5 -3 -7 -9 -13 -15 -13 -6 0 -5 6 2 15 7 9 19 14 26 11 6 -2 14 4 17 15
3 11 19 24 37 30 21 8 28 15 22 21 -6 6 -8 17 -5 26 4 10 2 13 -5 8 -6 -3 -14
-1 -18 5 -4 8 -3 9 4 5 7 -4 12 -2 12 4 0 7 -6 10 -14 7 -16 -7 -28 27 -15 40
6 6 1 17 -11 28 -18 17 -20 17 -20 1 0 -9 5 -14 10 -11 6 3 10 -1 10 -9 0 -8
-5 -18 -12 -22 -7 -5 -8 -3 -3 6 5 9 4 11 -3 6 -18 -11 -14 -26 5 -26 9 0 13
-3 10 -7 -4 -3 1 -11 10 -18 11 -8 13 -14 5 -19 -7 -4 -12 -2 -12 3 0 6 -4 11
-10 11 -5 0 -10 -7 -10 -16 0 -8 5 -12 10 -9 6 3 10 2 10 -4 0 -5 -5 -13 -10
-16 -6 -4 -8 -10 -5 -15 7 -12 -22 -33 -36 -24 -8 5 -10 3 -4 -7 6 -10 5 -11
-4 -3 -9 8 -6 34 14 110 13 54 25 106 25 115 0 9 9 19 20 22 11 3 20 1 20 -3
0 -5 8 -8 18 -7 14 1 18 8 16 26 -1 14 2 31 8 38 6 7 6 13 1 13 -5 0 -10 10
-10 22 -1 13 1 18 5 12 5 -8 15 -8 32 -2 l25 9 -26 21 -26 22 27 23 c33 28 40
28 41 6 0 -15 2 -15 9 2 4 11 5 32 3 48 -4 20 -2 27 11 27 9 0 16 8 16 18 0
14 -2 15 -10 2 -5 -8 -10 -10 -10 -4 0 6 7 17 16 25 8 7 13 21 11 30 -3 10 0
20 5 21 6 2 -12 4 -40 3 -43 0 -53 -4 -61 -22 -7 -16 -7 -24 1 -29 7 -5 8 -2
3 6 -6 10 -4 12 10 6 14 -5 16 -4 6 8 -9 11 -7 14 13 14 24 0 24 -1 5 -21 -10
-11 -19 -25 -19 -30 0 -5 -6 -7 -14 -4 -7 3 -19 0 -25 -6 -14 -14 -13 -4 2 55
19 70 40 88 104 88 29 0 53 -3 53 -6z m-7237 -71 c-7 -2 -19 -2 -25 0 -7 3 -2
5 12 5 14 0 19 -2 13 -5z m46 -29 c-6 -8 -17 -14 -23 -14 -6 0 -3 5 7 11 15 9
16 13 5 27 -12 15 -11 16 5 3 13 -10 15 -17 6 -27z m38 30 c-3 -3 -12 -4 -19
-1 -8 3 -5 6 6 6 11 1 17 -2 13 -5z m63 2 c0 -2 -7 -7 -16 -10 -8 -3 -12 -2
-9 4 6 10 25 14 25 6z m177 -2 c-3 -3 -12 -4 -19 -1 -8 3 -5 6 6 6 11 1 17 -2
13 -5z m63 2 c0 -3 -4 -8 -10 -11 -5 -3 -10 -1 -10 4 0 6 5 11 10 11 6 0 10
-2 10 -4z m5476 -24 c1 -7 0 -8 -3 -2 -10 20 -23 9 -19 -15 3 -16 0 -25 -8
-25 -23 0 -35 26 -27 54 3 11 55 0 57 -12z m62 1 c-7 -9 -7 -13 1 -13 6 0 14
7 18 15 4 13 20 16 74 14 38 -1 69 -6 69 -11 0 -5 -10 -6 -21 -3 -16 5 -20 3
-17 -6 3 -8 14 -13 24 -11 18 2 18 2 0 -9 -13 -8 -15 -14 -7 -18 7 -4 -18 -8
-54 -9 -59 -1 -65 1 -65 19 0 11 -5 17 -10 14 -6 -4 -8 -10 -6 -14 3 -4 -13
-8 -34 -8 -22 0 -40 4 -40 8 0 5 14 6 31 2 26 -5 30 -3 27 13 -2 10 -12 22
-23 26 -14 4 -11 6 12 5 25 -1 30 -4 21 -14z m206 8 c3 -5 14 -8 24 -6 9 1 11
0 5 -2 -7 -3 -13 -11 -13 -19 0 -8 -4 -14 -10 -14 -5 0 -9 6 -7 13 1 7 -7 11
-20 10 -16 -2 -21 2 -17 12 7 17 30 20 38 6z m1046 -16 c-7 -9 -15 -13 -17
-11 -6 6 20 36 26 30 2 -2 -2 -10 -9 -19z m-7075 -3 c-3 -3 -11 0 -18 7 -9 10
-8 11 6 5 10 -3 15 -9 12 -12z m213 -7 c-3 -3 -9 2 -12 12 -6 14 -5 15 5 6 7
-7 10 -15 7 -18z m75 5 c-3 -12 -8 -19 -11 -16 -5 6 5 36 12 36 2 0 2 -9 -1
-20z m5837 8 c0 -11 -28 -10 -35 1 -3 6 4 9 15 8 11 -1 20 -5 20 -9z m27 -23
c-1 -13 -7 -28 -12 -32 -4 -4 -5 -3 -1 4 3 6 2 15 -4 18 -8 5 -8 11 -1 19 6 7
7 17 3 21 -4 5 -1 5 6 1 7 -4 11 -18 9 -31z m-5897 15 c0 -5 -5 -10 -11 -10
-5 0 -7 5 -4 10 3 6 8 10 11 10 2 0 4 -4 4 -10z m-265 -18 c-3 -3 -11 0 -18 7
-9 10 -8 11 6 5 10 -3 15 -9 12 -12z m95 8 c0 -5 -4 -10 -9 -10 -6 0 -13 5
-16 10 -3 6 1 10 9 10 9 0 16 -4 16 -10z m50 0 c0 -5 -5 -10 -11 -10 -5 0 -7
5 -4 10 3 6 8 10 11 10 2 0 4 -4 4 -10z m41 -8 c-7 -2 -18 1 -23 6 -8 8 -4 9
13 5 13 -4 18 -8 10 -11z m5840 5 c-6 -8 -8 -17 -4 -20 3 -4 -1 -7 -10 -7 -20
0 -23 26 -4 33 23 10 30 7 18 -6z m74 3 c3 -6 -1 -7 -9 -4 -9 3 -16 1 -16 -5
0 -6 7 -11 15 -11 32 0 13 -15 -20 -16 -19 0 -35 4 -35 9 0 6 3 7 7 4 3 -4 12
2 20 13 15 22 28 25 38 10z m962 -25 c0 -8 -6 -15 -12 -15 -6 0 -12 7 -12 15
0 8 6 15 12 15 6 0 12 -7 12 -15z m-35 -24 c-2 -9 3 -11 13 -8 8 4 15 2 15 -2
0 -5 3 -18 6 -28 4 -11 3 -14 -3 -7 -4 6 -18 15 -31 19 -14 4 -21 12 -18 20 3
8 0 16 -7 19 -7 3 -3 4 8 3 11 -2 19 -9 17 -16z m-32 -17 c0 -8 -6 -17 -14
-20 -9 -4 -13 -16 -11 -35 2 -16 0 -29 -5 -29 -6 0 -10 -5 -10 -11 0 -6 6 -9
13 -6 7 3 21 -1 32 -9 17 -12 17 -14 2 -14 -9 0 -17 6 -17 13 0 6 -5 4 -11 -6
-5 -9 -8 -21 -5 -25 2 -4 1 -14 -4 -22 -5 -8 -5 -21 1 -31 6 -11 5 -20 -1 -24
-9 -6 -14 10 -13 42 1 7 -4 10 -9 7 -5 -3 -7 -12 -5 -18 6 -14 -9 -43 -17 -35
-6 6 24 142 33 149 3 3 7 20 7 38 1 18 5 39 8 48 7 18 26 9 26 -12z m9 -45
c-11 -11 -24 -17 -27 -13 -4 3 -1 9 6 11 6 3 10 9 6 14 -3 5 4 9 15 9 l21 0
-21 -21z m-49 -383 c-14 -14 -24 0 -16 21 6 15 8 15 16 3 6 -9 5 -19 0 -24z
m-103 -96 c-3 -22 -2 -38 1 -36 10 5 52 -12 52 -22 0 -4 -9 -8 -20 -8 -11 0
-20 6 -20 14 0 7 -5 10 -10 7 -15 -9 9 -37 27 -31 7 3 13 1 13 -4 0 -6 -6 -10
-12 -10 -9 0 -8 -4 2 -10 19 -12 33 -13 26 -1 -4 5 -2 20 3 33 9 22 10 21 9
-7 -2 -31 -28 -82 -28 -55 0 8 -16 26 -35 40 -19 14 -33 32 -30 40 2 8 6 32
10 53 8 50 19 48 12 -3z m90 -112 c-8 -29 -27 -106 -42 -170 -16 -64 -32 -115
-36 -112 -4 2 -10 0 -13 -5 -4 -5 -2 -12 4 -16 5 -3 10 -11 10 -16 0 -6 -5 -7
-10 -4 -7 4 -9 -2 -4 -19 9 -39 -2 -48 -41 -31 -32 13 -34 12 -32 -3 1 -9 6
-24 11 -32 7 -12 6 -13 -4 -3 -21 19 -22 52 -3 71 16 16 16 16 10 0 -7 -21 -3
-22 25 -7 11 6 18 7 15 2 -3 -5 -1 -15 4 -23 7 -11 8 -8 5 10 -2 18 -9 24 -22
23 -11 -1 -14 0 -7 3 7 3 11 11 9 17 -1 7 -1 9 1 5 3 -5 9 -8 15 -8 6 0 6 6
-2 15 -10 12 -10 15 0 15 8 0 10 3 7 6 -4 4 -13 1 -21 -5 -16 -14 -40 -6 -30
10 3 5 10 7 15 3 6 -3 17 2 24 12 17 22 20 48 5 39 -5 -3 -10 -1 -10 4 0 6
-10 12 -22 12 -17 1 -18 3 -6 6 9 2 25 0 36 -6 13 -7 23 -7 31 2 7 7 4 -5 -8
-25 -11 -21 -16 -40 -12 -43 8 -4 22 18 22 35 1 3 4 10 9 15 4 6 11 29 15 52
5 34 3 45 -14 62 -12 12 -25 21 -31 21 -5 0 -10 8 -10 18 0 14 -2 15 -10 2 -6
-9 -10 -10 -10 -3 0 20 18 25 28 8 5 -9 16 -17 25 -19 9 -1 20 -6 24 -11 4 -4
2 -5 -6 0 -10 5 -12 4 -7 -4 10 -15 29 -3 22 14 -3 8 0 16 7 19 7 3 0 3 -15 1
-17 -2 -32 3 -40 13 -11 15 -11 16 4 4 28 -22 25 2 -4 29 -23 22 -28 24 -31
10 -3 -11 -5 -9 -6 6 -1 29 19 40 26 14 3 -11 10 -18 16 -14 5 3 7 1 4 -4 -9
-15 42 -48 54 -36 6 6 12 27 15 49 8 52 15 73 21 57 2 -7 -2 -36 -10 -65z
m-117 -32 c0 -2 -7 -9 -15 -16 -13 -11 -14 -10 -9 4 5 14 24 23 24 12z m-25
-56 c-7 -21 10 -28 18 -7 3 7 6 6 6 -5 1 -10 11 -18 28 -20 16 -2 27 -10 29
-21 1 -9 -2 -15 -7 -11 -5 3 -6 10 -3 16 4 7 2 8 -4 4 -15 -9 -15 -36 0 -36
26 0 -5 -13 -36 -16 -48 -3 -58 -11 -44 -34 7 -10 15 -17 19 -14 4 2 10 0 14
-6 7 -11 -5 -13 -29 -4 -9 3 -13 10 -10 15 3 5 0 9 -6 9 -7 0 -9 -13 -4 -37 3
-21 6 -40 6 -43 0 -28 -4 -40 -13 -40 -6 0 -8 7 -5 15 3 9 -1 18 -8 21 -25 10
24 174 52 174 13 0 12 -3 -4 -14 -14 -11 -16 -18 -8 -26 9 -9 14 -9 19 1 6 8
4 10 -5 4 -9 -5 -11 -4 -6 3 5 8 13 9 26 2 14 -7 19 -5 23 10 4 16 -2 21 -29
26 -35 6 -38 11 -28 38 9 23 16 20 9 -4z m-46 -304 c-2 -52 -17 -102 -20 -66
-1 8 0 23 1 34 1 11 -3 15 -9 12 -6 -4 -11 0 -11 11 0 34 12 63 26 63 11 0 14
-13 13 -54z m66 -6 c-3 -5 1 -10 9 -10 19 0 20 -9 5 -30 -9 -13 -10 -12 -5 3
3 9 2 17 -3 17 -5 0 -12 -10 -16 -22 -4 -15 -8 -18 -12 -10 -4 10 -8 10 -19 1
-9 -7 -14 -8 -14 -1 0 6 9 13 19 17 10 3 21 15 24 25 3 11 8 20 12 20 3 0 3
-4 0 -10z m-99 -72 c4 -7 3 -8 -4 -4 -7 4 -12 1 -12 -9 0 -9 4 -14 8 -11 5 3
9 -1 9 -9 0 -8 -4 -12 -8 -9 -12 7 -29 -31 -34 -73 -2 -21 -7 -47 -11 -57 -6
-16 -4 -18 9 -13 9 3 17 4 17 1 0 -2 -10 -9 -22 -13 l-23 -9 25 -11 c22 -10
22 -11 3 -7 -12 2 -24 -1 -27 -8 -15 -33 29 184 44 222 11 25 16 27 26 10z
m104 -3 c0 -8 -12 -25 -27 -39 -15 -14 -24 -28 -21 -31 3 -3 14 2 24 12 15 15
17 16 12 2 -4 -10 -12 -44 -19 -78 -6 -34 -16 -61 -21 -61 -5 0 -6 -4 -3 -10
3 -5 1 -10 -5 -10 -7 0 -9 7 -6 16 5 14 1 16 -26 11 -18 -3 -27 -3 -20 0 6 2
10 9 6 14 -6 10 25 7 44 -4 7 -5 12 -3 12 7 0 9 -5 16 -11 16 -5 0 -7 5 -4 10
4 6 10 8 14 6 4 -3 8 0 9 7 0 7 4 23 8 37 6 23 5 24 -8 7 -7 -10 -20 -17 -28
-15 -11 2 -14 -6 -13 -32 0 -19 -1 -29 -4 -23 -3 9 -10 10 -24 3 -13 -7 -19
-7 -19 0 0 5 6 10 14 10 18 0 25 20 16 45 -6 17 -8 16 -14 -8 -3 -15 -11 -25
-16 -22 -6 4 -5 14 4 27 8 11 12 28 9 37 -5 12 -1 11 13 -4 29 -30 51 -28 51
6 0 16 -4 29 -9 29 -4 0 -8 -5 -8 -12 0 -6 -2 -9 -5 -6 -4 3 -3 18 1 32 6 26
19 27 19 3 0 -21 30 -13 40 11 11 26 15 28 15 7z m-3923 -25 c40 -5 107 -19
148 -31 l75 -22 0 -66 c1 -36 7 -79 14 -96 12 -29 14 -30 127 -41 66 -7 131
-19 154 -30 22 -10 45 -20 50 -22 6 -3 0 6 -13 20 -14 16 -44 30 -80 38 -69
16 -105 34 -47 24 22 -4 50 -8 63 -9 30 -2 116 -68 141 -108 11 -18 23 -44 26
-59 4 -16 13 -28 19 -28 7 0 27 -16 46 -35 30 -31 32 -37 21 -61 -11 -24 -13
-25 -29 -12 -9 8 -41 28 -71 44 -42 22 -58 38 -75 73 -28 59 -70 87 -157 101
-156 26 -233 -18 -246 -143 -8 -77 20 -128 89 -163 46 -23 70 -28 193 -34 196
-11 261 -38 339 -142 48 -62 45 -67 -7 -14 -24 23 -70 56 -103 72 -59 29 -60
29 -244 29 -180 0 -186 1 -235 26 -63 32 -115 104 -115 158 0 82 42 176 100
222 46 37 49 52 15 75 -22 14 -31 14 -98 0 -131 -27 -295 -99 -414 -182 -68
-47 -83 -50 -31 -6 145 123 322 207 501 237 29 5 37 10 35 23 -3 14 -18 18
-88 20 -226 9 -556 -50 -702 -124 -16 -8 -28 -12 -28 -9 0 11 120 64 210 94
119 38 205 58 295 67 39 4 77 8 85 10 8 1 61 3 118 3 95 1 132 12 80 24 -211
47 -228 49 -443 44 -115 -3 -230 -10 -254 -17 -64 -16 -62 -5 2 14 143 42 373
57 534 36z m3838 -180 c-3 -5 -1 -10 4 -10 19 0 12 -19 -11 -31 -19 -9 -21 -9
-10 2 21 23 13 33 -10 13 -21 -17 -21 -16 1 9 24 27 38 36 26 17z m20 -78 c-9
-29 -18 -52 -21 -52 -4 0 -4 7 0 15 3 8 0 15 -7 15 -7 1 -6 5 4 13 9 7 16 17
17 22 2 24 12 49 17 44 3 -3 -2 -29 -10 -57z m-80 38 c-3 -5 -11 -10 -16 -10
-6 0 -7 5 -4 10 3 6 11 10 16 10 6 0 7 -4 4 -10z m-10 -62 c4 -7 -1 -4 -10 7
-9 11 -18 19 -20 18 -3 -2 -5 -1 -5 2 0 43 -1 43 35 -27z m44 43 c19 -12 5
-31 -22 -30 -20 1 -20 2 3 8 24 7 24 7 5 19 -11 6 -15 11 -10 12 6 0 16 -4 24
-9z m-64 -51 c3 -5 -1 -10 -10 -10 -9 0 -13 5 -10 10 3 6 8 10 10 10 2 0 7 -4
10 -10z m30 -20 c-3 -5 -12 -10 -18 -10 -7 0 -6 4 3 10 19 12 23 12 15 0z
m-39 -26 c-1 -18 -4 -20 -16 -11 -8 6 -17 12 -19 14 -7 4 9 20 22 20 9 0 14
-9 13 -23z m97 -5 c-4 -14 -8 -17 -13 -9 -4 7 -12 10 -18 6 -6 -3 -14 -1 -18
5 -4 7 -3 9 2 6 6 -3 16 -2 24 4 23 14 29 11 23 -12z m-113 -34 c14 -18 13
-19 -1 -7 -14 11 -17 9 -21 -12 -3 -15 2 -31 11 -41 15 -15 15 -16 -1 -9 -11
3 -18 1 -18 -5 0 -6 -4 -11 -10 -11 -5 0 -7 6 -5 13 2 6 9 32 15 56 6 23 12
41 13 40 2 -2 9 -13 17 -24z m49 -2 c-9 -10 -6 -15 12 -22 18 -6 25 -5 27 7 2
8 -2 18 -10 23 -10 7 -10 9 0 9 21 0 24 -25 8 -81 -15 -53 -15 -53 -13 -13 2
36 0 40 -23 41 -14 1 -19 -1 -12 -4 6 -2 12 -14 11 -26 0 -21 -1 -21 -8 -2 -4
11 -16 20 -26 20 -10 0 -19 6 -21 13 -1 7 0 8 3 2 2 -5 9 -10 14 -10 6 0 7 5
3 12 -4 6 -3 8 4 4 6 -3 13 -2 16 3 4 5 2 12 -4 16 -14 8 -5 22 14 22 12 0 13
-4 5 -14z m-19 -73 c0 -5 -2 -10 -4 -10 -3 0 -8 5 -11 10 -3 6 -1 10 4 10 6 0
11 -4 11 -10z m-20 -14 c0 -11 -19 -15 -25 -6 -3 5 1 10 9 10 9 0 16 -2 16 -4z
m-44 -15 c-4 -5 -1 -12 4 -14 6 -3 5 -4 -2 -3 -15 3 -23 26 -8 26 6 0 9 -4 6
-9z m77 -22 c6 -4 5 -14 -3 -25 -6 -11 -10 -12 -7 -4 2 8 -1 21 -8 27 -10 10
-15 9 -19 -4 -4 -9 -9 -13 -13 -9 -3 3 2 15 13 27 13 15 20 17 23 7 2 -7 8
-16 14 -19z m12 21 c3 -5 1 -10 -4 -10 -6 0 -11 5 -11 10 0 6 2 10 4 10 3 0 8
-4 11 -10z m9 -58 c-4 -9 -7 -20 -6 -24 1 -3 -6 -9 -15 -12 -14 -6 -14 -4 1
18 9 14 16 33 17 43 0 11 3 13 6 5 3 -7 1 -20 -3 -30z m-48 -22 c1 -43 -4 -47
-11 -10 -3 13 -10 27 -16 31 -8 5 -6 9 7 12 10 2 19 5 19 6 0 0 0 -17 1 -39z
m-51 21 c3 -6 -3 -14 -12 -20 -16 -9 -16 -12 -3 -22 13 -9 12 -10 -2 -5 -12 4
-18 0 -19 -12 0 -11 -2 -12 -6 -4 -6 15 16 72 28 72 4 0 10 -4 14 -9z m28 -62
c7 0 1 -5 -12 -10 -13 -5 -26 -7 -29 -4 -3 3 0 5 6 5 7 0 13 12 13 28 2 23 2
24 6 5 2 -13 10 -23 16 -24z m47 -38 c-6 -23 -13 -41 -16 -41 -4 0 1 51 6 58
2 2 6 15 9 29 0 3 4 4 7 1 3 -3 0 -24 -6 -47z m-56 2 c13 -4 16 -2 11 7 -5 8
-4 11 2 7 14 -9 14 -57 0 -57 -6 0 -7 3 -4 7 9 9 -12 33 -29 33 -17 0 -19 -37
-2 -42 9 -3 9 -6 0 -12 -7 -4 -14 5 -20 26 -5 18 -14 32 -21 31 -6 -2 -11 2
-11 8 0 11 20 8 74 -8z m-70 -41 c-10 -20 -10 -27 1 -38 7 -8 20 -11 28 -8 8
3 18 1 22 -5 4 -7 0 -8 -11 -4 -12 5 -15 3 -9 -6 6 -10 3 -11 -13 -2 -28 15
-31 14 -43 -11 -9 -22 -9 -22 -4 2 7 28 12 57 14 81 0 9 7 16 15 16 11 0 11
-5 0 -25z m109 -32 c-3 -11 -9 -17 -14 -15 -10 7 -1 35 11 35 5 0 6 -9 3 -20z
m-1298 -55 c169 -46 289 -139 352 -270 31 -66 36 -87 37 -153 1 -106 -21 -164
-78 -197 -24 -14 -52 -25 -63 -25 -20 0 -20 2 -5 54 13 48 13 61 -2 129 -47
210 -177 339 -343 341 -40 1 -68 -3 -70 -10 -2 -6 23 -21 57 -33 46 -17 76
-38 133 -94 85 -83 117 -141 117 -213 0 -173 -110 -266 -247 -209 -31 13 -31
14 -21 57 27 122 -45 259 -168 318 -39 19 -66 24 -128 25 -52 0 -80 -4 -83
-12 -2 -6 25 -25 61 -42 87 -42 164 -105 183 -149 19 -45 13 -125 -11 -151
-26 -29 -97 -44 -174 -38 -147 12 -265 78 -340 190 -26 39 -51 70 -57 69 -18
-4 -11 -153 9 -190 10 -19 16 -36 13 -38 -9 -9 -91 72 -103 103 -81 193 196
477 536 549 85 18 312 11 395 -11z m1285 3 c0 -4 -4 -8 -9 -8 -6 0 -12 4 -15
8 -3 5 1 9 9 9 8 0 15 -4 15 -9z m-40 -23 c-14 -17 0 -21 16 -5 7 7 11 6 11
-4 0 -8 -4 -13 -9 -10 -4 3 -5 -9 -1 -27 5 -27 4 -31 -10 -26 -16 6 -25 -8 -9
-15 4 -1 5 -16 1 -33 l-7 -30 -1 34 c-1 28 -3 32 -16 21 -8 -6 -20 -10 -26 -8
-15 5 -21 38 -7 38 6 0 8 -7 4 -15 -3 -9 0 -15 9 -15 18 0 28 17 15 25 -5 3
-10 12 -10 19 0 14 37 66 47 66 3 0 0 -7 -7 -15z m-55 -17 c6 -4 2 -8 -7 -8
-10 0 -18 7 -18 17 0 9 3 12 8 7 4 -5 12 -12 17 -16z m-3085 -136 l0 -127 45
3 c42 4 45 3 45 -21 0 -24 -4 -26 -72 -34 -40 -5 -76 -7 -80 -5 -5 2 -8 73 -8
158 l0 154 35 0 35 0 0 -128z m160 -16 c0 -135 -1 -144 -20 -149 -19 -5 -20 0
-20 144 0 142 1 149 20 149 19 0 20 -7 20 -144z m-616 122 c-4 -7 -30 -45 -57
-85 l-50 -72 35 -53 c19 -29 43 -65 52 -80 l18 -28 -43 0 c-43 0 -45 2 -94 70
-27 39 -50 70 -51 70 -1 0 -1 -33 0 -72 l1 -73 -42 -3 -43 -3 0 165 0 166 46
0 46 0 -4 -70 c-2 -39 -1 -70 2 -70 3 0 21 26 40 57 49 81 63 93 111 93 29 0
38 -3 33 -12z m305 -130 c24 -78 45 -148 48 -155 4 -9 -5 -13 -30 -13 -30 0
-37 4 -46 30 -10 29 -12 30 -69 30 l-60 0 -16 -40 c-14 -36 -19 -40 -52 -40
-29 0 -35 3 -30 16 3 9 27 83 53 165 l47 149 56 0 56 0 43 -142z m3214 135
c-7 -2 -19 -2 -25 0 -7 3 -2 5 12 5 14 0 19 -2 13 -5z m-20 -33 c3 -12 1 -18
-5 -14 -7 5 -9 -3 -4 -22 5 -23 4 -25 -4 -12 -6 10 -8 29 -4 43 7 30 10 31 17
5z m-3 -92 c0 -10 -3 -9 -10 2 -8 12 -10 12 -16 -3 -3 -9 -4 -24 0 -32 3 -8 1
-15 -4 -15 -6 0 -10 -7 -10 -15 0 -8 -4 -15 -9 -15 -4 0 -4 20 2 45 6 25 14
45 18 45 5 0 5 8 2 18 -6 16 -6 16 10 0 9 -9 17 -23 17 -30z m90 7 c0 -2 -7
-5 -15 -9 -9 -3 -15 0 -15 9 0 9 6 12 15 9 8 -4 15 -7 15 -9z m-62 -46 c-3 -8
-7 -3 -11 10 -4 17 -3 21 5 13 5 -5 8 -16 6 -23z m56 14 c-7 -2 -9 -14 -6 -26
3 -12 2 -20 -1 -17 -3 3 -6 10 -7 15 -1 6 -7 16 -13 24 -9 11 -9 13 0 8 6 -4
15 -2 18 4 4 5 10 7 14 3 3 -4 1 -9 -5 -11z m-66 -55 c10 -30 10 -31 -3 -14
-8 11 -15 24 -15 29 0 4 -5 5 -12 1 -7 -4 -8 -3 -4 4 12 19 21 14 34 -20z m26
17 c-4 -9 0 -15 10 -15 9 0 16 -5 16 -11 0 -10 -13 -5 -38 14 -11 8 -11 12 0
18 18 12 18 11 12 -6z m-104 -70 c-7 -20 -10 -39 -7 -41 3 -3 -1 -25 -8 -49
-8 -24 -11 -46 -8 -49 4 -3 1 -6 -6 -6 -8 0 -11 -8 -8 -20 3 -11 1 -20 -4 -20
-5 0 -9 5 -9 11 0 12 18 82 28 109 3 8 4 19 3 23 -3 14 20 89 26 84 3 -3 0
-22 -7 -42z m60 41 c0 -2 3 -11 6 -20 4 -11 1 -16 -11 -16 -9 0 -13 5 -9 11 3
6 0 15 -7 20 -11 7 -10 9 4 9 9 0 17 -2 17 -4z m56 -35 c-4 -6 -13 -11 -19
-10 -9 0 -9 2 0 5 7 3 9 13 6 22 -5 13 -3 14 7 5 7 -6 9 -16 6 -22z m-93 -6
c-3 -9 -8 -14 -10 -11 -3 3 -2 9 2 15 9 16 15 13 8 -4z m8 -38 c-10 -9 -11 -8
-5 6 3 10 9 15 12 12 3 -3 0 -11 -7 -18z m82 7 c-3 -8 -12 -13 -20 -10 -8 3
-18 6 -21 7 -8 0 29 17 40 18 4 1 5 -6 1 -15z m-13 -32 c0 -4 -9 -8 -19 -8
-15 0 -17 3 -9 13 10 12 28 9 28 -5z m-61 -17 c5 2 6 -8 2 -23 -5 -25 -6 -25
-9 -4 -2 12 -10 22 -18 22 -12 0 -12 3 -2 14 11 12 13 12 16 0 2 -8 7 -12 11
-9z m51 -35 c0 -4 -3 -10 -7 -14 -5 -4 -8 -15 -9 -24 -1 -36 -17 -113 -24
-117 -5 -3 -15 -2 -24 1 -12 5 -14 10 -6 19 5 6 7 15 3 18 -3 4 -1 7 6 7 8 0
10 -7 6 -20 -3 -11 -2 -20 2 -20 15 0 32 103 21 118 -7 8 -7 12 2 12 7 0 10 6
7 13 -3 8 1 14 9 14 8 0 14 -3 14 -7z m-60 -36 c0 -2 -9 0 -20 6 -11 6 -20 13
-20 16 0 2 9 0 20 -6 11 -6 20 -13 20 -16z m-29 -13 c0 8 4 5 9 -6 12 -27 12
-45 0 -45 -5 0 -7 8 -4 18 5 14 3 14 -11 -3 l-17 -20 3 20 c2 11 -1 27 -6 35
-8 13 -7 13 8 1 14 -11 17 -11 18 0z m44 -22 c-3 -12 -7 -24 -11 -28 -4 -3 -5
1 -1 10 3 9 0 22 -6 28 -8 8 -7 11 5 11 12 0 16 -7 13 -21z m-80 -18 c-3 -5 5
-17 17 -25 12 -9 17 -16 11 -16 -14 0 -43 28 -43 41 0 5 5 9 11 9 5 0 8 -4 4
-9z m-3420 -64 c222 -73 383 -228 447 -430 25 -80 21 -195 -9 -235 -21 -29
-96 -72 -125 -72 -14 0 -16 6 -12 29 7 33 -10 149 -28 196 -42 107 -147 224
-243 270 -58 27 -115 33 -115 12 0 -7 40 -50 90 -95 69 -64 96 -97 119 -145
68 -143 63 -300 -11 -351 -32 -22 -86 -20 -138 7 -42 21 -44 25 -57 86 -29
146 -108 257 -225 316 -71 35 -159 48 -173 26 -3 -5 19 -26 49 -46 113 -75
202 -204 213 -310 16 -157 -141 -198 -260 -66 -40 44 -67 91 -67 116 0 14 -6
15 -32 8 -151 -38 -324 69 -364 226 -25 99 -57 42 -52 -92 3 -97 -5 -107 -55
-67 -69 54 -60 227 18 365 71 125 152 193 275 229 l54 16 -40 -42 c-23 -24
-50 -57 -62 -74 -23 -33 -39 -84 -26 -84 4 0 30 17 58 38 214 159 341 204 561
198 107 -2 144 -8 210 -29z m-3180 -242 c54 -167 185 -353 328 -466 27 -22 46
-39 43 -39 -15 0 -124 54 -152 75 -42 32 -50 19 -28 -48 26 -81 79 -177 132
-237 l47 -54 -40 23 c-111 67 -164 116 -228 211 -42 62 -44 56 -17 -52 27
-109 101 -242 162 -293 132 -112 294 -172 432 -163 77 6 55 -12 -52 -41 -104
-28 -173 -34 -265 -24 -42 5 -79 7 -82 5 -8 -9 70 -65 131 -94 70 -33 177 -58
249 -58 76 0 222 34 299 69 38 17 70 31 72 31 8 0 -69 -107 -106 -146 -23 -25
-39 -48 -36 -52 11 -10 97 17 185 59 114 54 199 116 265 195 65 76 73 64 29
-44 -79 -200 -230 -334 -453 -403 -108 -33 -306 -33 -400 0 -63 23 -96 41 -73
41 23 0 133 82 152 114 12 18 21 36 21 40 0 4 -37 4 -83 0 -67 -5 -96 -3 -157
14 -197 54 -397 193 -516 358 -24 34 -44 64 -44 67 0 3 30 -8 68 -23 61 -26
165 -50 218 -50 17 0 2 19 -65 88 -128 128 -187 224 -222 360 -47 184 -5 465
106 707 l28 60 13 -75 c7 -41 25 -110 39 -155z"/>
<path d="M7110 7564 c0 -6 9 -19 20 -29 18 -16 20 -16 20 -2 0 9 8 21 18 26
15 9 15 10 -5 11 -15 0 -23 -6 -23 -17 0 -15 -2 -14 -15 3 -8 10 -15 14 -15 8z"/>
<path d="M7028 7547 c12 -7 19 -16 16 -20 -4 -4 -2 -7 4 -7 27 0 6 34 -23 38
-18 2 -18 1 3 -11z"/>
<path d="M7200 7550 c0 -5 -7 -7 -15 -4 -11 4 -13 2 -9 -9 7 -18 41 -11 41 9
0 8 -4 14 -9 14 -4 0 -8 -4 -8 -10z"/>
<path d="M7005 7530 c-3 -5 1 -10 10 -10 9 0 13 5 10 10 -3 6 -8 10 -10 10 -2
0 -7 -4 -10 -10z"/>
<path d="M6890 7540 c0 -5 7 -10 16 -10 8 0 12 5 9 10 -3 6 -10 10 -16 10 -5
0 -9 -4 -9 -10z"/>
<path d="M6775 7530 c-11 -17 4 -29 35 -28 17 1 28 3 25 6 -2 3 3 10 12 17 14
11 14 12 -5 10 -11 0 -28 -7 -36 -15 -9 -7 -20 -10 -23 -6 -4 4 -1 11 7 16 9
6 10 10 3 10 -6 0 -15 -4 -18 -10z"/>
<path d="M6873 7533 c4 -6 1 -13 -5 -16 -8 -2 -9 -8 -4 -13 5 -5 11 -4 13 3 2
7 12 9 21 6 18 -7 17 -5 -12 17 -11 8 -17 10 -13 3z"/>
<path d="M7510 7390 c0 -7 7 -9 16 -6 10 4 13 2 8 -6 -5 -8 -2 -9 10 -5 9 4
14 3 11 -2 -3 -5 -1 -12 4 -15 11 -7 22 17 13 30 -11 14 -62 17 -62 4z"/>
<path d="M7355 7380 c3 -5 8 -10 11 -10 2 0 4 5 4 10 0 6 -5 10 -11 10 -5 0
-7 -4 -4 -10z"/>
<path d="M7480 7373 c0 -13 -3 -14 -12 -5 -18 18 -48 15 -48 -5 0 -14 2 -15 9
-4 6 8 14 10 22 5 17 -11 89 -12 83 -2 -3 5 -14 8 -25 8 -11 0 -17 5 -14 10 3
6 1 10 -4 10 -6 0 -11 -8 -11 -17z"/>
<path d="M7195 7372 c13 -9 17 -32 6 -32 -5 0 -12 6 -14 13 -3 7 -6 5 -6 -5
-1 -21 2 -22 46 -6 19 7 33 19 32 28 0 10 -2 11 -6 3 -2 -7 -9 -13 -14 -13 -6
0 -8 4 -5 8 2 4 -7 9 -22 10 -15 1 -22 -2 -17 -6z"/>
<path d="M6861 7353 c-1 -7 -9 -10 -18 -7 -16 5 -16 4 0 -6 21 -13 32 -8 24
12 -4 9 -6 9 -6 1z"/>
<path d="M6927 7333 c-4 -3 -7 -11 -7 -17 0 -6 5 -5 12 2 6 6 9 14 7 17 -3 3
-9 2 -12 -2z"/>
<path d="M6820 7318 c0 -4 14 -8 30 -8 17 0 30 2 30 4 0 2 -13 6 -30 8 -16 3
-30 1 -30 -4z"/>
<path d="M6895 7320 c-3 -5 -1 -10 4 -10 6 0 11 5 11 10 0 6 -2 10 -4 10 -3 0
-8 -4 -11 -10z"/>
<path d="M5313 7202 l-41 -3 25 -77 c33 -105 40 -225 19 -331 -10 -46 -15 -85
-12 -88 7 -8 94 8 111 21 37 27 60 256 36 359 -14 60 -37 117 -48 118 -34 3
-53 4 -90 1z"/>
<path d="M3834 7155 c-98 -104 -103 -427 -9 -550 89 -118 234 -72 280 89 52
185 5 421 -96 480 -16 10 -50 16 -84 16 -53 0 -60 -3 -91 -35z"/>
<path d="M7281 7191 c-11 -10 -21 -24 -21 -32 0 -9 3 -9 13 3 6 8 20 20 31 25
10 6 14 13 9 16 -6 4 -20 -2 -32 -12z"/>
<path d="M7156 7178 c-9 -13 -14 -17 -10 -9 4 8 2 12 -5 10 -7 -3 -12 -9 -12
-14 1 -12 52 -15 66 -4 6 4 17 4 25 -1 23 -15 28 -12 28 13 0 29 -34 34 -48 6
-13 -23 -30 -25 -30 -3 0 8 5 12 10 9 6 -3 10 -1 10 4 0 18 -17 12 -34 -11z
m74 -3 c11 -13 10 -14 -4 -9 -9 3 -16 10 -16 15 0 13 6 11 20 -6z"/>
<path d="M7013 7161 c0 -15 1 -18 4 -8 6 21 12 21 41 2 20 -14 21 -14 16 0 -3
8 -14 15 -23 16 -12 0 -12 2 4 9 17 8 15 9 -10 8 -26 -2 -31 -6 -32 -27z"/>
<path d="M7085 7180 c-7 -12 2 -30 16 -30 5 0 9 9 9 20 0 21 -15 27 -25 10z"/>
<path d="M6890 7166 c6 -6 25 -10 44 -10 19 0 33 -3 31 -6 -2 -4 3 -7 12 -7
12 0 11 5 -7 19 -12 10 -27 18 -34 18 -6 0 -4 -5 4 -10 13 -8 12 -10 -2 -10
-10 0 -18 4 -18 8 0 4 -9 8 -20 8 -13 0 -16 -4 -10 -10z"/>
<path d="M7908 7023 c6 -2 10 -9 7 -14 -4 -5 1 -6 10 -2 13 5 14 7 3 14 -7 5
-17 8 -23 8 -5 0 -4 -3 3 -6z"/>
<path d="M7476 7005 c3 -7 11 -12 18 -9 7 3 17 -5 23 -18 9 -20 10 -19 10 12
0 19 -2 30 -4 23 -3 -8 -12 -9 -28 -3 -19 7 -23 6 -19 -5z"/>
<path d="M7594 7007 c-4 -7 -4 -9 1 -5 4 4 14 3 20 -2 9 -7 14 -7 18 3 6 16
-30 20 -39 4z"/>
<path d="M7365 7000 c4 -6 11 -8 16 -5 14 9 11 15 -7 15 -8 0 -12 -5 -9 -10z"/>
<path d="M7180 6970 c-8 -5 -11 -12 -7 -16 4 -4 13 -2 19 4 15 15 7 24 -12 12z"/>
<path d="M7485 6970 c3 -5 11 -10 16 -10 6 0 7 5 4 10 -3 6 -11 10 -16 10 -6
0 -7 -4 -4 -10z"/>
<path d="M7043 6974 c-7 -7 -13 -15 -13 -18 0 -9 34 1 37 11 6 18 -11 22 -24
7z"/>
<path d="M7070 6810 c-8 -5 -10 -10 -5 -11 6 0 18 -2 28 -4 15 -3 16 -1 6 11
-14 16 -10 16 -29 4z"/>
<path d="M7121 6793 c-1 -27 3 -33 19 -33 11 0 20 3 20 8 0 12 -20 38 -21 27
0 -5 -4 -1 -9 10 -7 17 -9 15 -9 -12z"/>
<path d="M7162 6806 c7 -8 15 -12 17 -11 5 6 -10 25 -20 25 -5 0 -4 -6 3 -14z"/>
<path d="M7320 6601 c0 -5 5 -13 10 -16 6 -3 10 -2 10 4 0 5 -4 13 -10 16 -5
3 -10 2 -10 -4z"/>
<path d="M7276 6591 c-3 -5 -16 -7 -28 -3 l-21 5 20 -20 c18 -18 33 -21 77
-14 11 1 -23 41 -35 41 -4 0 -10 -4 -13 -9z m27 -14 c3 -8 -3 -13 -14 -13 -22
0 -25 12 -6 19 6 3 13 6 13 6 1 1 4 -5 7 -12z"/>
<path d="M7350 6588 c0 -10 6 -18 13 -19 6 0 3 -4 -8 -9 -19 -8 -19 -9 3 -9
26 -1 28 8 7 35 -13 17 -14 17 -15 2z"/>
<path d="M7006 6412 c7 -4 14 -16 17 -27 4 -18 5 -17 6 3 1 19 5 22 21 17 11
-4 20 -2 20 4 0 6 -17 11 -37 11 -21 0 -33 -4 -27 -8z"/>
<path d="M7044 6212 c21 -24 56 -30 56 -9 0 8 3 7 10 -3 5 -8 12 -11 16 -7 10
10 2 16 -35 27 -21 6 -31 5 -31 -2 0 -6 -7 -5 -17 3 -15 11 -14 10 1 -9z"/>
<path d="M7190 6232 c0 -5 7 -9 15 -9 8 0 12 4 9 9 -3 4 -9 8 -15 8 -5 0 -9
-4 -9 -8z"/>
<path d="M7668 6223 c7 -3 16 -2 19 1 4 3 -2 6 -13 5 -11 0 -14 -3 -6 -6z"/>
<path d="M6901 6048 c-1 -29 12 -37 25 -16 4 6 3 8 -4 4 -6 -3 -12 3 -15 16
-4 20 -4 19 -6 -4z"/>
<path d="M7035 6050 c3 -5 8 -10 11 -10 2 0 4 5 4 10 0 6 -5 10 -11 10 -5 0
-7 -4 -4 -10z"/>
<path d="M7272 6038 c2 -15 9 -22 20 -20 9 1 19 -2 23 -8 3 -5 11 -10 17 -10
7 0 7 4 -1 13 -6 8 -7 18 -3 22 4 5 2 5 -4 2 -7 -4 -17 0 -24 8 -18 22 -32 18
-28 -7z"/>
<path d="M7345 6020 c3 -5 8 -10 11 -10 2 0 4 5 4 10 0 6 -5 10 -11 10 -5 0
-7 -4 -4 -10z"/>
<path d="M8110 5932 c-8 -3 -21 -9 -28 -15 -11 -8 -11 -12 0 -18 18 -12 28
-11 28 2 0 5 -4 7 -10 4 -5 -3 -10 -1 -10 4 0 13 3 13 24 5 9 -3 13 -11 10
-16 -4 -6 3 -5 15 1 11 7 21 16 21 22 0 6 5 7 10 4 6 -3 10 -2 10 4 0 5 -9 9
-20 8 -12 -1 -18 -7 -16 -14 3 -7 1 -13 -4 -13 -5 0 -10 6 -12 13 -2 8 -10 12
-18 9z"/>
<path d="M8077 5668 c11 -13 18 -29 16 -35 -3 -7 0 -13 5 -13 13 0 21 45 11
62 -4 7 -11 9 -16 5 -4 -5 -1 -12 7 -17 11 -7 11 -10 2 -10 -7 0 -15 7 -18 15
-4 8 -11 15 -17 15 -6 0 -1 -10 10 -22z"/>
<path d="M8009 5511 c-24 -7 -29 -25 -12 -43 19 -21 36 -13 28 13 -4 13 -2 19
9 19 8 0 17 4 21 9 5 10 -20 11 -46 2z"/>
<path d="M7937 5368 c-4 -12 -1 -25 5 -29 7 -4 6 -8 -3 -11 -8 -3 -11 -9 -6
-13 11 -13 19 1 21 39 2 40 -9 48 -17 14z"/>
<path d="M6923 5852 c-20 -12 9 -47 31 -39 10 4 14 11 11 17 -3 5 -1 10 4 10
6 0 11 5 11 10 0 12 -40 13 -57 2z m27 -6 c0 -3 -4 -8 -10 -11 -5 -3 -10 -1
-10 4 0 6 5 11 10 11 6 0 10 -2 10 -4z"/>
<path d="M6990 5855 c-1 -5 -3 -18 -5 -27 -2 -10 1 -18 5 -18 16 0 21 20 11
37 -6 10 -11 14 -11 8z"/>
<path d="M7812 4860 c0 -14 2 -19 5 -12 2 6 2 18 0 25 -3 6 -5 1 -5 -13z"/>
<path d="M7785 4740 c3 -5 8 -10 11 -10 2 0 4 5 4 10 0 6 -5 10 -11 10 -5 0
-7 -4 -4 -10z"/>
<path d="M4554 4288 c3 -7 9 -21 12 -30 7 -20 24 -24 24 -7 0 17 -20 49 -31
49 -6 0 -8 -6 -5 -12z"/>
<path d="M7626 3814 c-4 -10 -1 -22 5 -28 9 -8 10 -7 4 4 -8 13 -7 13 8 1 15
-11 17 -11 17 2 0 8 -6 20 -14 26 -11 9 -15 8 -20 -5z"/>
<path d="M4240 3698 c-7 -29 -15 -59 -17 -65 -4 -9 7 -13 37 -13 30 0 41 4 37
13 -2 6 -10 36 -17 65 -8 28 -17 52 -20 52 -3 0 -12 -24 -20 -52z"/>
<path d="M4470 365 c0 -8 20 -47 45 -87 60 -96 79 -156 72 -224 l-6 -54 65 0
64 0 0 64 c0 70 -11 110 -50 176 -48 83 -190 176 -190 125z"/>
</g>
</svg>
